# xmcd CD database file
#
# Track frame offsets:
#	150
#	20265
#	37591
#	58920
#	79133
#	99678
#	117682
#	133157
#	152447
#	170185
#	189040
#	210143
#	228663
#
# Disc length: 3213 seconds
#
# Revision: 0
# Processed by: cddbd v1.5.2PL0 Copyright (c) Steve Scherf et al.
# Submitted via: CDex 1.70beta2
#
DISCID=a50c8b0d
DTITLE=Annekei - Annekei
DYEAR=2006
DGENRE=Jazz
TTITLE0=Taxi Driver
TTITLE1=Baby You
TTITLE2=N.Y.C.
TTITLE3=Brother
TTITLE4=With Open Arms
TTITLE5=Diamond Shell
TTITLE6=Bull Fight
TTITLE7=The Voice Within
TTITLE8=Paradise
TTITLE9=Hold On
TTITLE10=Keep Og Going
TTITLE11=Close Your Eyes
TTITLE12=SHIKI～四季～
EXTD=YEAR: 2006
EXTT0=
EXTT1=
EXTT2=
EXTT3=
EXTT4=
EXTT5=
EXTT6=
EXTT7=
EXTT8=
EXTT9=
EXTT10=
EXTT11=
EXTT12=
PLAYORDER=
